<svg width="96" height="68" viewBox="0 0 96 68" fill="none" xmlns="http://www.w3.org/2000/svg">
<g id="Fiat 500 (Traced)">
<path id="Fiat 500 (Traced)_2" fill-rule="evenodd" clip-rule="evenodd" d="M30.4228 2.26676C25.7568 4.43976 14.9258 14.7568 14.9258 17.0288C14.9258 17.5508 12.6848 20.2778 9.94582 23.0898C2.27182 30.9688 -1.12518 39.5018 0.328816 47.2498C1.13782 51.5628 5.00082 55.5148 9.20682 56.3328C11.5258 56.7848 12.8458 57.8458 13.9258 60.1278C16.2148 64.9628 20.2568 67.4178 25.9258 67.4178C31.7378 67.4178 35.5848 64.9798 38.2578 59.6028L40.0908 55.9178H49.9258H59.7608L61.5938 59.6028C64.2668 64.9798 68.1138 67.4178 73.9258 67.4178C79.7388 67.4178 83.5848 64.9798 86.2588 59.6018C87.3728 57.3608 89.0498 55.6738 90.5328 55.3018C94.4548 54.3168 95.9258 51.1928 95.9258 43.8448C95.9258 30.4148 90.8468 23.7018 78.6128 20.9598C75.0038 20.1508 72.9228 18.7128 68.2608 13.8048C61.2968 6.47275 57.0458 3.62475 49.8978 1.50176C42.4088 -0.722245 36.3288 -0.483245 30.4228 2.26676ZM56.3988 13.3288C58.2588 14.7478 62.1308 18.6108 65.0028 21.9138C68.2768 25.6768 71.0098 27.9198 72.3258 27.9238C76.6058 27.9348 82.3508 30.1888 85.0968 32.9348C87.5818 35.4198 87.9258 36.5038 87.9258 41.8408C87.9258 45.1828 87.6528 47.9178 87.3198 47.9178C86.9868 47.9178 85.8218 46.7838 84.7318 45.3978C83.6408 44.0118 81.4608 42.2118 79.8868 41.3978C74.2728 38.4938 67.2288 40.1748 63.1198 45.3978C61.2118 47.8238 60.7178 47.9178 49.9258 47.9178C39.1338 47.9178 38.6398 47.8238 36.7318 45.3978C30.8638 37.9388 20.7488 38.2178 14.6528 46.0078C12.5168 48.7358 11.9298 48.9898 10.0648 47.9918C6.17582 45.9108 7.76482 37.8068 13.3628 31.1678L16.1038 27.9178H36.0148H55.9258V23.9178V19.9178H49.9258H43.9258V13.9658V8.01376L48.4708 9.38176C50.9708 10.1338 54.5378 11.9098 56.3988 13.3288ZM35.9258 14.4178V19.9178H29.3908C23.4718 19.9178 22.9448 19.7528 23.8048 18.1678C25.5628 14.9258 32.8178 9.04376 35.1758 8.94776C35.5888 8.93176 35.9258 11.3928 35.9258 14.4178ZM29.9258 49.9178C31.0258 51.0178 31.9258 52.8178 31.9258 53.9178C31.9258 56.4938 28.5018 59.9178 25.9258 59.9178C23.3498 59.9178 19.9258 56.4938 19.9258 53.9178C19.9258 52.8178 20.8258 51.0178 21.9258 49.9178C23.0258 48.8178 24.8258 47.9178 25.9258 47.9178C27.0258 47.9178 28.8258 48.8178 29.9258 49.9178ZM77.9258 49.9178C79.0258 51.0178 79.9258 52.8178 79.9258 53.9178C79.9258 55.0178 79.0258 56.8178 77.9258 57.9178C76.8258 59.0178 75.0258 59.9178 73.9258 59.9178C72.8258 59.9178 71.0258 59.0178 69.9258 57.9178C68.8258 56.8178 67.9258 55.0178 67.9258 53.9178C67.9258 52.8178 68.8258 51.0178 69.9258 49.9178C71.0258 48.8178 72.8258 47.9178 73.9258 47.9178C75.0258 47.9178 76.8258 48.8178 77.9258 49.9178Z" fill="black"/>
</g>
</svg>
