<svg width="25" height="25" viewBox="0 0 25 25" fill="none" xmlns="http://www.w3.org/2000/svg">
<g id="icons / cheveron-left">
<path id="Fiat 500 (Traced)" fill-rule="evenodd" clip-rule="evenodd" d="M7.83253 1.08602C6.66513 1.85959 3.95529 5.53233 3.95529 6.34114C3.95529 6.52696 3.3946 7.49775 2.70932 8.49879C0.789341 11.3036 -0.0605663 14.3413 0.303215 17.0995C0.505621 18.6349 1.47212 20.0417 2.52443 20.3329C3.10463 20.4938 3.43488 20.8716 3.70509 21.6839C4.27779 23.4051 5.28907 24.2791 6.70741 24.2791C8.16154 24.2791 9.12403 23.4112 9.7928 21.497L10.2514 20.1852H12.7121H15.1727L15.6313 21.497C16.3001 23.4112 17.2626 24.2791 18.7167 24.2791C20.1711 24.2791 21.1333 23.4112 21.8023 21.4967C22.081 20.6989 22.5006 20.0983 22.8717 19.9659C23.8529 19.6153 24.2209 18.5032 24.2209 15.8873C24.2209 11.1064 22.9502 8.71665 19.8893 7.74053C18.9864 7.45254 18.4657 6.94062 17.2993 5.19343C15.557 2.58331 14.4934 1.56946 12.705 0.813692C10.8314 0.0219718 9.31017 0.107053 7.83253 1.08602ZM14.3316 5.02398C14.7969 5.52913 15.7657 6.90431 16.4842 8.08015C17.3034 9.41973 17.9871 10.2182 18.3164 10.2196C19.3872 10.2236 20.8246 11.026 21.5116 12.0035C22.1333 12.8881 22.2194 13.274 22.2194 15.1739C22.2194 16.3637 22.1511 17.3373 22.0678 17.3373C21.9845 17.3373 21.693 16.9336 21.4203 16.4402C21.1473 15.9468 20.6019 15.306 20.2081 15.0162C18.8035 13.9824 17.0411 14.5809 16.0131 16.4402C15.5357 17.3038 15.4121 17.3373 12.7121 17.3373C10.012 17.3373 9.88837 17.3038 9.411 16.4402C7.94287 13.7849 5.41216 13.8842 3.88698 16.6574C3.35257 17.6285 3.20571 17.7189 2.7391 17.3636C1.7661 16.6228 2.16365 13.7379 3.56423 11.3745L4.25001 10.2175H9.23161H14.2132V8.79355V7.36959H12.7121H11.2109V5.25074V3.13189L12.348 3.61889C12.9735 3.88659 13.8659 4.51883 14.3316 5.02398ZM9.20935 5.41165V7.36959H7.57433C6.09344 7.36959 5.96159 7.31085 6.17675 6.74661C6.61659 5.59249 8.43175 3.49856 9.0217 3.46439C9.12503 3.45869 9.20935 4.33478 9.20935 5.41165ZM7.70819 18.0493C7.9834 18.4409 8.20857 19.0816 8.20857 19.4732C8.20857 20.3903 7.35191 21.6092 6.70741 21.6092C6.06292 21.6092 5.20625 20.3903 5.20625 19.4732C5.20625 19.0816 5.43143 18.4409 5.70664 18.0493C5.98185 17.6577 6.4322 17.3373 6.70741 17.3373C6.98263 17.3373 7.43297 17.6577 7.70819 18.0493ZM19.7175 18.0493C19.9927 18.4409 20.2179 19.0816 20.2179 19.4732C20.2179 19.8648 19.9927 20.5056 19.7175 20.8972C19.4423 21.2888 18.9919 21.6092 18.7167 21.6092C18.4415 21.6092 17.9911 21.2888 17.7159 20.8972C17.4407 20.5056 17.2155 19.8648 17.2155 19.4732C17.2155 19.0816 17.4407 18.4409 17.7159 18.0493C17.9911 17.6577 18.4415 17.3373 18.7167 17.3373C18.9919 17.3373 19.4423 17.6577 19.7175 18.0493Z" fill="#159947"/>
</g>
</svg>
