<svg width="89" height="64" viewBox="0 0 89 64" fill="none" xmlns="http://www.w3.org/2000/svg">
<g id="Quad Bike (Traced)">
<path id="Quad Bike (Traced)_2" fill-rule="evenodd" clip-rule="evenodd" d="M44 4.044V8.088H49.083C51.879 8.088 54.017 8.455 53.833 8.905C52.893 11.208 41.702 20.088 39.739 20.087C38.508 20.087 34.575 18.278 31 16.068C23.216 11.256 16.977 9.245 7.25 8.414L0 7.795V11.941V16.088H3.867C7.271 16.088 8.051 16.567 10.381 20.088L13.028 24.088H8.514H4V28.088V32.088H11.254H18.507L24.004 40.737C27.027 45.493 30.095 49.993 30.821 50.737C31.821 51.759 35.997 52.088 47.992 52.088H63.841L64.469 54.947C64.815 56.52 66.455 59.108 68.114 60.697C70.605 63.084 71.989 63.588 76.046 63.588C80.264 63.588 81.425 63.124 84.231 60.319C87.034 57.516 87.5 56.35 87.5 52.149C87.5 46.944 84.839 42.781 80.42 41.071C79.276 40.629 76.708 37.527 74.713 34.177L71.085 28.088H78.343C89.308 28.088 90.937 25.05 83.599 18.286C78.538 13.621 73.157 10.66 66.859 9.074C63.316 8.182 62.061 7.239 60.475 4.276C58.506 0.6 58.476 0.587 51.25 0.294L44 0V4.044ZM69.006 18.404L72.5 19.925L67.256 20.006C62.294 20.084 61.851 20.311 59.013 24.229C56.286 27.994 53.99 34.04 52.517 41.338C51.965 44.073 51.917 44.088 43.731 44.063L35.5 44.038L27.714 31.932C23.432 25.273 20.08 19.674 20.265 19.489C20.45 19.304 23.477 20.922 26.992 23.083C38.221 29.988 42.637 29.709 52.704 21.457C60.054 15.432 61.54 15.154 69.006 18.404ZM66.936 36.811C70.42 42.409 69.71 44.088 63.859 44.088C60.127 44.088 59.988 43.972 60.571 41.338C61.547 36.93 63.12 32.088 63.576 32.088C63.807 32.088 65.319 34.213 66.936 36.811ZM7.5 40.991C3.049 42.946 0.5 47.009 0.5 52.149C0.5 56.35 0.966 57.516 3.769 60.319C6.583 63.133 7.73 63.588 12 63.588C16.27 63.588 17.417 63.133 20.231 60.319C23.045 57.505 23.5 56.358 23.5 52.088C23.5 47.875 23.033 46.66 20.407 44.033C17.105 40.731 11.239 39.349 7.5 40.991ZM14.96 49.54C17.617 52.741 13.715 57.658 10.25 55.476C6.788 53.295 8.021 48.088 12 48.088C12.965 48.088 14.297 48.741 14.96 49.54ZM78.96 49.54C81.617 52.741 77.715 57.658 74.25 55.476C70.788 53.295 72.021 48.088 76 48.088C76.965 48.088 78.297 48.741 78.96 49.54Z" fill="black"/>
</g>
</svg>
