<svg width="25" height="25" viewBox="0 0 25 25" fill="none" xmlns="http://www.w3.org/2000/svg">
<g id="icons / cheveron-left">
<path id="Quad Bike (Traced)" fill-rule="evenodd" clip-rule="evenodd" d="M12.2039 1.80541V3.33173H13.5889C14.3508 3.33173 14.9334 3.47025 14.8832 3.64009C14.6271 4.50932 11.5777 7.86089 11.0428 7.86051C10.7074 7.86051 9.6357 7.17774 8.66156 6.34362C6.54053 4.52743 4.84048 3.76842 2.19001 3.45478L0.214478 3.22115V4.78597V6.35117H1.26818C2.19573 6.35117 2.40827 6.53196 3.04316 7.86089L3.76443 9.37061H2.53443H1.30442V10.8803V12.39H3.28104H5.25739L6.75525 15.6544C7.57897 17.4495 8.41496 19.1479 8.61279 19.4287C8.88527 19.8145 10.0232 19.9386 13.2917 19.9386H17.6103L17.7814 21.0177C17.8757 21.6114 18.3226 22.5882 18.7746 23.1879C19.4534 24.0889 19.8305 24.2791 20.936 24.2791C22.0853 24.2791 22.4017 24.104 23.1663 23.0453C23.9301 21.9873 24.0571 21.5472 24.0571 19.9617C24.0571 17.9971 23.332 16.4259 22.1278 15.7805C21.8161 15.6137 21.1164 14.4429 20.5728 13.1785L19.5842 10.8803H21.5619C24.5497 10.8803 24.9936 9.7337 22.9941 7.18076C21.615 5.42005 20.1488 4.30248 18.4327 3.70388C17.4672 3.36721 17.1253 3.0113 16.6931 1.89297C16.1566 0.505541 16.1484 0.500634 14.1794 0.390047L12.2039 0.279083V1.80541ZM19.0177 7.2253L19.9698 7.79937L18.5408 7.82994C17.1888 7.85938 17.068 7.94506 16.2947 9.42383C15.5517 10.8449 14.926 13.1268 14.5247 15.8813C14.3742 16.9135 14.3612 16.9192 12.1306 16.9098L9.88775 16.9003L7.76617 12.3312C6.59938 9.81787 5.68601 7.70464 5.73642 7.63481C5.78683 7.56499 6.61164 8.17567 7.56944 8.99129C10.6292 11.5974 11.8325 11.4921 14.5756 8.37759C16.5784 6.10358 16.9833 5.99865 19.0177 7.2253ZM18.4536 14.1726C19.403 16.2855 19.2095 16.9192 17.6152 16.9192C16.5983 16.9192 16.5604 16.8754 16.7193 15.8813C16.9852 14.2176 17.4138 12.39 17.5381 12.39C17.601 12.39 18.013 13.1921 18.4536 14.1726ZM2.25813 15.7503C1.04529 16.4882 0.350721 18.0217 0.350721 19.9617C0.350721 21.5472 0.4777 21.9873 1.24148 23.0453C2.00826 24.1074 2.3208 24.2791 3.48432 24.2791C4.64783 24.2791 4.96038 24.1074 5.72715 23.0453C6.49393 21.9832 6.61791 21.5503 6.61791 19.9386C6.61791 18.3485 6.49066 17.89 5.77511 16.8984C4.87536 15.6522 3.27695 15.1306 2.25813 15.7503ZM4.29088 18.977C5.01487 20.1851 3.95163 22.0409 3.00746 21.2174C2.06412 20.3942 2.40009 18.4289 3.48432 18.4289C3.74727 18.4289 4.11022 18.6754 4.29088 18.977ZM21.73 18.977C22.454 20.1851 21.3908 22.0409 20.4466 21.2174C19.5033 20.3942 19.8392 18.4289 20.9235 18.4289C21.1864 18.4289 21.5494 18.6754 21.73 18.977Z" fill="#616B7C"/>
</g>
</svg>
